{
    "asset" : {
        "generator" : "Khronos glTF Blender I/O v1.0.5",
        "version" : "2.0"
    },
    "scene" : 0,
    "scenes" : [
        {
            "extras" : {
                "glTF2ExportSettings" : {
                    "export_apply" : 1,
                    "export_extras" : 1,
                    "export_format" : "GLTF_SEPARATE",
                    "export_tangents" : 1
                }
            },
            "name" : "Scene",
            "nodes" : [
                2,
                3,
                4,
                7,
                10,
                11
            ]
        }
    ],
    "nodes" : [
        {
            "mesh" : 0,
            "name" : "Cylinder",
            "translation" : [
                0,
                3.5248501300811768,
                0
            ]
        },
        {
            "mesh" : 1,
            "name" : "Sphere",
            "translation" : [
                0,
                1.6277294158935547,
                0
            ]
        },
        {
            "children" : [
                0,
                1
            ],
            "mesh" : 2,
            "name" : "Cube",
            "translation" : [
                0.6716637015342712,
                1.0070183277130127,
                3.314561128616333
            ]
        },
        {
            "name" : "Light",
            "rotation" : [
                0.16907575726509094,
                0.7558803558349609,
                -0.27217137813568115,
                0.570947527885437
            ],
            "translation" : [
                4.076245307922363,
                5.903861999511719,
                -1.0054539442062378
            ]
        },
        {
            "name" : "Camera",
            "rotation" : [
                0.30479565262794495,
                0.6932504177093506,
                -0.4294925928115845,
                0.49197518825531006
            ],
            "translation" : [
                21.189729690551758,
                13.086507797241211,
                -5.02763557434082
            ]
        },
        {
            "mesh" : 0,
            "name" : "Cylinder.001",
            "translation" : [
                0,
                3.524850368499756,
                0
            ]
        },
        {
            "mesh" : 1,
            "name" : "Sphere.001",
            "translation" : [
                0,
                1.6277295351028442,
                0
            ]
        },
        {
            "children" : [
                5,
                6
            ],
            "mesh" : 2,
            "name" : "Cube.001",
            "translation" : [
                -0.9786449670791626,
                0.8783012628555298,
                -2.1278927326202393
            ]
        },
        {
            "mesh" : 0,
            "name" : "Cylinder.002",
            "translation" : [
                0,
                3.5248501300811768,
                0
            ]
        },
        {
            "mesh" : 1,
            "name" : "Sphere.002",
            "translation" : [
                0,
                1.6277294158935547,
                0
            ]
        },
        {
            "children" : [
                8,
                9
            ],
            "mesh" : 2,
            "name" : "Cube.002",
            "translation" : [
                4.057814121246338,
                0.8479821085929871,
                6.510812759399414
            ]
        },
        {
            "name" : "Light.001",
            "rotation" : [
                0.16907575726509094,
                0.7558803558349609,
                -0.27217137813568115,
                0.570947527885437
            ],
            "translation" : [
                7.462395668029785,
                5.744825839996338,
                2.190797805786133
            ]
        }
    ],
    "materials" : [
        {
            "doubleSided" : true,
            "name" : "Material.002",
            "pbrMetallicRoughness" : {
                "baseColorFactor" : [
                    0.04293302819132805,
                    0.0653897300362587,
                    0.8000000715255737,
                    1
                ],
                "metallicFactor" : 1,
                "roughnessFactor" : 0
            }
        },
        {
            "doubleSided" : true,
            "name" : "Material.001",
            "pbrMetallicRoughness" : {
                "baseColorFactor" : [
                    0.36750009655952454,
                    0.8000000715255737,
                    0.42307808995246887,
                    1
                ],
                "metallicFactor" : 1,
                "roughnessFactor" : 0.14601770043373108
            }
        },
        {
            "doubleSided" : true,
            "name" : "Material",
            "pbrMetallicRoughness" : {
                "baseColorFactor" : [
                    0.20791590213775635,
                    0.049915969371795654,
                    0.006273206789046526,
                    1
                ],
                "metallicFactor" : 0,
                "roughnessFactor" : 1
            }
        }
    ],
    "meshes" : [
        {
            "name" : "Cylinder",
            "primitives" : [
                {
                    "attributes" : {
                        "POSITION" : 0,
                        "NORMAL" : 1,
                        "TEXCOORD_0" : 2
                    },
                    "indices" : 3,
                    "material" : 0
                }
            ]
        },
        {
            "name" : "Sphere",
            "primitives" : [
                {
                    "attributes" : {
                        "POSITION" : 4,
                        "NORMAL" : 5,
                        "TANGENT" : 6,
                        "TEXCOORD_0" : 7
                    },
                    "indices" : 8,
                    "material" : 1
                }
            ]
        },
        {
            "name" : "Cube",
            "primitives" : [
                {
                    "attributes" : {
                        "POSITION" : 9,
                        "NORMAL" : 10,
                        "TANGENT" : 11,
                        "TEXCOORD_0" : 12
                    },
                    "indices" : 13,
                    "material" : 2
                }
            ]
        }
    ],
    "accessors" : [
        {
            "bufferView" : 0,
            "componentType" : 5126,
            "count" : 130,
            "max" : [
                1,
                1,
                1
            ],
            "min" : [
                -1,
                -1,
                -1
            ],
            "type" : "VEC3"
        },
        {
            "bufferView" : 1,
            "componentType" : 5126,
            "count" : 130,
            "type" : "VEC3"
        },
        {
            "bufferView" : 2,
            "componentType" : 5126,
            "count" : 130,
            "type" : "VEC2"
        },
        {
            "bufferView" : 3,
            "componentType" : 5123,
            "count" : 372,
            "type" : "SCALAR"
        },
        {
            "bufferView" : 4,
            "componentType" : 5126,
            "count" : 559,
            "max" : [
                1.000000238418579,
                1,
                1.0000003576278687
            ],
            "min" : [
                -0.9999998211860657,
                -1,
                -1
            ],
            "type" : "VEC3"
        },
        {
            "bufferView" : 5,
            "componentType" : 5126,
            "count" : 559,
            "type" : "VEC3"
        },
        {
            "bufferView" : 6,
            "componentType" : 5126,
            "count" : 559,
            "type" : "VEC4"
        },
        {
            "bufferView" : 7,
            "componentType" : 5126,
            "count" : 559,
            "type" : "VEC2"
        },
        {
            "bufferView" : 8,
            "componentType" : 5123,
            "count" : 2880,
            "type" : "SCALAR"
        },
        {
            "bufferView" : 9,
            "componentType" : 5126,
            "count" : 24,
            "max" : [
                1,
                1,
                1
            ],
            "min" : [
                -1,
                -1,
                -1
            ],
            "type" : "VEC3"
        },
        {
            "bufferView" : 10,
            "componentType" : 5126,
            "count" : 24,
            "type" : "VEC3"
        },
        {
            "bufferView" : 11,
            "componentType" : 5126,
            "count" : 24,
            "type" : "VEC4"
        },
        {
            "bufferView" : 12,
            "componentType" : 5126,
            "count" : 24,
            "type" : "VEC2"
        },
        {
            "bufferView" : 13,
            "componentType" : 5123,
            "count" : 36,
            "type" : "SCALAR"
        }
    ],
    "bufferViews" : [
        {
            "buffer" : 0,
            "byteLength" : 1560,
            "byteOffset" : 0
        },
        {
            "buffer" : 0,
            "byteLength" : 1560,
            "byteOffset" : 1560
        },
        {
            "buffer" : 0,
            "byteLength" : 1040,
            "byteOffset" : 3120
        },
        {
            "buffer" : 0,
            "byteLength" : 744,
            "byteOffset" : 4160
        },
        {
            "buffer" : 0,
            "byteLength" : 6708,
            "byteOffset" : 4904
        },
        {
            "buffer" : 0,
            "byteLength" : 6708,
            "byteOffset" : 11612
        },
        {
            "buffer" : 0,
            "byteLength" : 8944,
            "byteOffset" : 18320
        },
        {
            "buffer" : 0,
            "byteLength" : 4472,
            "byteOffset" : 27264
        },
        {
            "buffer" : 0,
            "byteLength" : 5760,
            "byteOffset" : 31736
        },
        {
            "buffer" : 0,
            "byteLength" : 288,
            "byteOffset" : 37496
        },
        {
            "buffer" : 0,
            "byteLength" : 288,
            "byteOffset" : 37784
        },
        {
            "buffer" : 0,
            "byteLength" : 384,
            "byteOffset" : 38072
        },
        {
            "buffer" : 0,
            "byteLength" : 192,
            "byteOffset" : 38456
        },
        {
            "buffer" : 0,
            "byteLength" : 72,
            "byteOffset" : 38648
        }
    ],
    "buffers" : [
        {
            "byteLength" : 38720,
            "uri" : "test-model.bin"
        }
    ]
}
